# xmcd
#
# Track frame offsets:
#	150
#	28010
#	45957
#	74370
#	97753
#	111708
#	147043
#	168948
#	194698
#	229684
#	253686
#	273064
#	305032
#	328102
#
# Disc length: 4596 seconds
#
# Revision: 1
# Processed by: cddbd v1.5.1PL0 Copyright (c) Steve Scherf et al.
# Submitted via: audiograbber 1.82.01
#
DISCID=c311f20e
DTITLE=Various Artist - Classic Soul Hits Vol. 7
DYEAR=2002
DGENRE=R&B
TTITLE0=Enchantment - Where Do We Go From Here
TTITLE1=Rose Royce - Wishing on a Star
TTITLE2=Aretha Franklin - Something He Can Feel
TTITLE3=Earth, Wind, and Fire - Keep Your Head to the Sky
TTITLE4=Joyce Kennedy and Jeffrey Osbourne - The Last Time I Made Love
TTITLE5=Teena Marie - Portugese Love
TTITLE6=Marvin Gaye - Let's Get it On
TTITLE7=The Gap Band - Yearning for Your Love
TTITLE8=The Isley Brothers - Make Me Say it Again
TTITLE9=Harold Melvin and the Blue Notes (w/ Teddy Pendegrass and Sharon Paige) - Y
TTITLE9=ou Know How to Make Me Feel So Good
TTITLE10=L.T.D - Share My Love
TTITLE11=The Commodores - Zoom
TTITLE12=Maze featuring Frankie Beverly - Before I Let Go
TTITLE13=Slick - Sunrise
EXTD=
EXTT0=
EXTT1=
EXTT2=
EXTT3=
EXTT4=
EXTT5=
EXTT6=
EXTT7=
EXTT8=
EXTT9=
EXTT10=
EXTT11=
EXTT12=
EXTT13=
PLAYORDER=
